<?xml version="1.0" encoding="UTF-8"?>
<svg id="Layer_2" data-name="Layer 2" xmlns="http://www.w3.org/2000/svg" viewBox="0 0 465.97 459.81">
  <g id="Layer_1-2">
    <g>
      <path d="m94.32,64.7c0-2.49.02-4.98,0-7.47-.08-10.94,1.8-12.92,12.28-16.26,11.45-3.65,22.64-8.12,34-12.06,10.6-3.68,21.31-7.03,31.9-10.73,7.94-2.78,15.75-5.93,23.65-8.83,7.98-2.93,15.9-6.02,24.01-8.53,7.69-2.37,14.87.88,21.99,3.27,11.27,3.78,22.49,7.71,33.71,11.63,7.99,2.79,15.95,5.67,23.92,8.52,5.98,2.14,11.95,4.28,17.92,6.45,5.95,2.17,11.87,4.41,17.83,6.55,5.83,2.09,11.73,4.01,17.55,6.13,4.24,1.55,6.96,4.39,6.63,9.23-.93,13.86-1.3,27.79-3.05,41.55-1.59,12.52-3.97,25.05-7.33,37.22-3.94,14.3-9.31,28.2-14.07,42.27-6.19,18.31-15.34,35.19-24.72,52.02-12.99,23.3-29.04,43.91-50.38,60.03-8.86,6.69-18.52,12.32-27.67,18.62-6.09,4.2-11.65,1.28-16.46-1.7-12.35-7.64-24.1-16.11-34.49-26.48-15.69-15.65-29.51-32.58-39.6-52.43-6.27-12.34-13.2-24.36-18.9-36.94-4.46-9.84-7.55-20.3-11.11-30.54-2.39-6.89-4.62-13.84-6.76-20.82-1.1-3.61-2.06-7.28-2.7-11-2.02-11.67-3.99-23.35-5.73-35.06-1.21-8.15-2.02-16.37-3.02-24.56.19-.03.39-.06.58-.09Zm10.28-1.82c.65,4.72,1.38,9.43,1.95,14.16,1.23,10.29,1.68,20.74,3.73,30.86,2.39,11.84,5.9,23.47,9.36,35.06,3.26,10.93,6.55,21.9,10.79,32.47,4.21,10.49,9.06,20.81,14.63,30.64,7.58,13.37,15.51,26.62,24.36,39.17,13.71,19.45,31.41,34.91,51.75,47.25,2.34,1.42,5.09,3.28,8.24.93,11.09-8.29,22.85-15.82,33.26-24.88,14.12-12.28,25.26-27.09,34.95-43.32,10.04-16.83,19.12-34.07,26.36-52.14,6.17-15.39,10.93-31.43,15.17-47.48,3.39-12.82,5.6-26.02,7.34-39.18,1.27-9.66,1.15-19.53,1.14-29.3,0-1.88-1.98-4.76-3.74-5.47-7.55-3.05-15.35-5.47-23.07-8.09-10.45-3.55-20.93-6.99-31.35-10.62-11.19-3.9-22.32-7.99-33.49-11.95-9.06-3.21-18.12-6.43-27.25-9.45-1.57-.52-3.59-.42-5.2.06-4.02,1.2-7.92,2.81-11.88,4.21-8.74,3.1-17.47,6.19-26.23,9.24-5.66,1.98-11.34,3.9-17.02,5.82-8.18,2.76-16.39,5.39-24.53,8.25-8.74,3.07-17.28,6.75-26.14,9.4-12.05,3.61-13.08,4.35-13.12,14.36Z"/>
      <path d="m317.01,390.93c-1.08.36-1.54.61-2.01.64-12.66,1.03-12.6,1.02-12.6-11.52,0-8.29.24-16.61-.41-24.86-1.04-13.08-16.3-20.37-27.96-14.27-8.28,4.32-11.81,10.48-11.46,19.64.34,8.78-.02,17.59.14,26.39.06,3.47-1.33,4.84-4.7,4.71-3.12-.12-6.24-.03-10.04-.03,0-9.93-.22-19.33.08-28.73.2-6.17-.92-11.59-4.72-16.65-4.53-6.04-15.59-10.33-23.49-5.75-8.69,5.04-12.34,12.01-12.12,21.74.22,9.59.05,19.19.05,29.35-4.14,0-7.79.3-11.33-.17-1.14-.15-2.83-2.3-2.86-3.57-.27-10.11-.95-20.3-.06-30.34,1.29-14.46,7.55-26.31,24.81-32.02,13.65-4.52,24.42.26,34.17,8.82,2.42,2.13,3.47,1.78,5.13.12,11.84-11.87,28.83-13.92,42.25-5.92,10.21,6.09,16.89,14.92,17.09,27.39.18,11.6.04,23.21.04,35.03Z"/>
      <path d="m.44,391.49c0-14.07-1.21-27.47.39-40.51,1.22-9.9,7.24-18.4,17.47-22.45,2.24-.89,4.56-1.59,6.74-2.61,9.52-4.45,18.32-1.3,26.92,2.7,2.5,1.17,4.82,3.14,6.65,5.24,2.25,2.59,3.45,2.83,6.19.25,7.38-6.95,16.32-11.17,26.62-10.36,15.05,1.18,32.26,14.8,31.25,32.45-.57,10.09-.21,20.25,0,30.37.08,3.76-.81,5.63-4.96,5.13-2.57-.31-5.21-.06-8.27-.06,0-11.32.21-21.92-.06-32.52-.31-11.99-12.01-23.46-25.12-20.22-7.26,1.79-14.95,9.15-14.91,18.25.05,11.25.01,22.51.01,33.45-.81.47-1.08.76-1.37.78q-13.66.74-13.67-12.8c0-6.97-.34-13.97.11-20.91.64-9.99-7.1-15.48-13.89-18.68-6.06-2.86-16.1,1.12-21.02,7.18-3.47,4.27-5.05,8.77-4.77,14.4.43,8.44-.09,16.93.08,25.39.08,4.01-1.2,5.91-5.42,5.58-2.78-.22-5.6-.04-8.99-.04Z"/>
      <path d="m428.47,391.56c-6.64,0-13.28-.16-19.9.06-3.88.13-5.64-1.23-5.12-5.18.44-3.4-1.61-8.05,5.03-7.86,10.94.32,21.89.2,32.84.17,5.69-.01,9.15-2.94,9.06-7.27-.06-3.1-1.25-5.21-4.55-5.34-8.43-.35-16.88-1.02-25.3-.76-10.09.31-17.13-4-22.14-12.36-3.66-6.11.22-20.33,6.44-24.41,5.52-3.63,11.31-5.41,18.05-5.13,10.1.42,20.24.26,30.35.07,3.58-.07,4.99.95,5.05,4.72.18,10.17.34,10.19-9.97,10.2-9.46.02-18.91-.08-28.37,0-5.71.05-7.89,2.05-7.72,6.69.15,4.04,2.65,5.96,7.95,5.99,7.8.04,15.6.22,23.39-.03,9.06-.28,14.97,4.4,19.3,11.64,1.41,2.37,2.99,5.09,3.09,7.7.47,11.38-9.15,20.97-20.56,21.01-5.64.02-11.28,0-16.92,0v.08Z"/>
      <path d="m190.23,377.57c-16.73,21.71-43.41,17.48-54.92,3.36-12.54-15.38-11.1-36.74,5.53-49.71,15.27-11.9,38.1-8.25,49.79,9.47-11.1,10.75-22.36,21.63-33.57,32.57-.8.79-1.94,2.56-1.7,2.85.87,1.03,2.18,2.05,3.47,2.32,5.76,1.16,10.73-1.22,14.95-4.63,7.41-6,7.26-6.2,13.73.66.87.93,1.68,1.92,2.72,3.11Zm-46.47-11.16c7.49-7.73,14.75-15.15,21.9-22.67.86-.9,1.15-2.33,1.7-3.52-1.12-.51-2.21-1.32-3.38-1.49-13.39-1.92-26.97,11.86-20.22,27.68Z"/>
      <path d="m392.54,378.98v11.83c-17.06,3.92-32.33-4.36-37.99-19.78-1.49-4.05-2.28-8.58-2.34-12.9-.25-18.57-.13-37.14-.11-55.71,0-6.05.05-6.05,8.26-6.01,5.24.02,6.37,1.15,6.34,6.47-.06,9.78-.06,19.57-.27,29.35-.09,4.27,1.11,6.47,5.92,6.15,5.61-.37,11.27-.03,16.91-.13,2.5-.04,3.61.84,3.53,3.47-.32,11.71,1.6,9.54-9.11,9.73-3.98.07-7.97.21-11.93-.05-3.86-.25-5.16,1.18-5.33,5.08-.53,12.39,8.88,21.75,21.73,22.17,1.3.04,2.59.2,4.38.34Z"/>
      <path d="m329.55,357.19c0-9.93.19-19.87-.08-29.79-.13-4.59,1.03-6.54,6.05-6.31,8.41.38,8.41.09,8.41,8.77,0,19.2-.07,38.4.08,57.59.04,4.91-2.64,5.88-6.63,5.73-3.66-.14-7.97,1.09-7.84-5.2.21-10.26.06-20.52.06-30.79h-.04Z"/>
      <path d="m149.88,459.02h-5.26v-19.64c-6.97,0-13.39-.13-19.79.16-.83.04-2.14,2.23-2.22,3.48-.25,3.96-.17,7.96.06,11.93.22,3.91-1.27,5.17-5.25,3.86v-41.65c3.72-1.32,5.49-.4,5.17,3.68-.17,2.14.01,4.31.02,6.46.03,6.87.03,6.95,7.16,6.88,4.62-.05,10.52,1.24,13.43-1.09,2.33-1.86,1.32-8.28,1.25-12.67-.06-4.11,1.86-4.25,5.42-3.32v41.91Z"/>
      <path d="m427.63,439.21c2.53,6.91,4.68,12.79,6.83,18.64-4.87,2.1-5.99,1.48-6.84-2.78-.64-3.19-1.25-6.5-2.64-9.4-2.44-5.1-7.06-4.27-12-3.34v16.57h-5.42c0-13.15-.06-26.03.1-38.9.01-1.07,1.52-3.07,2.24-3.03,5.81.33,11.87.19,17.33,1.88,6.05,1.87,7.77,10.68,3.96,15.89-1.41,1.93-2.98,3.75-3.56,4.47Zm-14.86-17.71c0,4.22.26,7.36-.06,10.44-.42,4,1.21,5.44,5.01,5.01,1.14-.13,2.3-.06,3.45-.16,4.34-.39,6.47-3.07,6.45-8.06-.02-5.07-1.63-6.91-6.56-7.2-2.58-.15-5.17-.03-8.28-.03Z"/>
      <path d="m286.79,434.03h20.01v-17.12c2.79-.21,5.4-1.44,5.41,2.52.03,13.06.01,26.12.01,39.55-1.85.11-3.25.19-5.24.3v-19.74h-20.1v19.38c-1.8.14-3.2.25-5,.39v-42.42c1.43-.07,2.95-.14,4.91-.24v17.38Z"/>
      <path d="m185.94,458.49c3.75-11.15,7.33-21.78,10.9-32.41.78-2.33,1.09-4.95,2.39-6.94.84-1.3,3.18-2.52,4.63-2.3,1.42.21,3.17,2.06,3.72,3.58,3.35,9.32,6.45,18.73,9.53,28.14,1.05,3.21,1.81,6.52,2.76,10.02-3.94,1.65-5.91.13-7.05-3.87-.78-2.74-1.79-6.99-3.61-7.53-3.95-1.18-8.83-1.42-12.63-.07-2.06.73-3.16,5.4-3.85,8.48-.82,3.64-2.62,4.1-6.78,2.91Zm22.6-17.12c-1.6-5.72-2.98-10.66-4.68-16.78-4.71,5.24-4.69,11.1-6.71,16.78h11.39Z"/>
      <path d="m402.13,458.62c-3.96,1.46-6.12.26-7.19-3.93-.7-2.75-1.75-7.03-3.54-7.56-3.95-1.17-8.76-1.28-12.65-.05-1.94.62-3.24,5.04-3.76,7.93-.73,4.13-2.6,4.9-6.74,3.47,4.11-12.87,8.06-25.69,12.43-38.36.54-1.56,3.4-3.34,5.04-3.22,1.49.12,3.42,2.46,4.07,4.23,3.24,8.84,6.16,17.8,9.12,26.75,1.12,3.37,2.05,6.81,3.22,10.75Zm-11.51-17.25c-1.5-5.75-2.86-11.01-4.23-16.27-.54-.15-1.07-.29-1.61-.44-1.84,5.39-3.68,10.77-5.71,16.7h11.55Z"/>
      <path d="m96.85,418.93c-4.46,5.45-11.76.29-17.15,3.23v11.25c4.72,3.22,11.89-2.63,16.16,5.6h-16.13v15.54c4.67,0,9.09-.07,13.52.02,3.36.07,3.36.16,3.28,4.42h-22v-42h21.63c.23.64.46,1.29.69,1.93Z"/>
      <path d="m179.88,459h-22.27v-41.96h22.12c.91,3.27-.26,4.59-3.6,4.44-3.14-.14-6.3.05-9.44,0-2.86-.05-4.35,1-4,4.1.18,1.64-.41,3.49.17,4.92.57,1.43,2.01,3.26,3.33,3.51,2.88.54,5.97-.06,8.9.32,1.29.17,2.41,1.58,3.61,2.43-1.17.82-2.29,2.26-3.52,2.36-3.91.31-7.86.11-12.4.11,0,4.67-.23,8.6.16,12.47.1,1,2.04,2.46,3.26,2.59,3.44.38,6.94.24,10.42.2,3-.04,4.38,1.06,3.27,4.51Z"/>
      <path d="m462.45,458.98h-21.88v-42.06h21.92c.94,3.49-.57,4.42-3.5,4.36-4.28-.09-8.56-.02-13.15-.02v13.06c3.6,0,7.06-.25,10.46.11,1.62.17,3.12,1.5,4.68,2.3-1.46.81-2.87,2.17-4.4,2.32-3.41.35-6.89.11-11,.11,0,4.71-.21,8.8.16,12.85.09.95,2.08,2.34,3.31,2.45,3.45.33,6.99-.15,10.43.23,1.45.16,2.74,1.69,4.11,2.59-.38.56-.75,1.12-1.13,1.69Z"/>
      <path d="m362.4,421.48c-3.38,0-6.76-.06-10.14.01-10.49.23-17.89,11.54-14.01,21.38,4.08,10.35,6.72,12.04,18.13,11.61,1.16-.04,2.36-.36,3.46-.16.97.18,1.83.92,2.74,1.41-.68,1-1.13,2.52-2.06,2.93-7.04,3.06-19.66-.22-24.4-6.94-4.3-6.11-5.78-13.24-3.13-20.54,3.22-8.89,9.18-14.55,19.23-14.6,2.15-.01,4.41-.28,6.43.27,1.63.44,2.97,1.94,4.44,2.97-.23.55-.47,1.1-.7,1.66Z"/>
      <path d="m44.35,416.94h22.06l.84,1.38c-1.3.98-2.52,2.63-3.92,2.81-3.43.44-6.99-.13-10.4.39-1.34.2-3.3,2.14-3.44,3.45-1.24,11.6-1.14,11.61,10.6,11.75,1.47.02,2.93.16,4.46.24.73,3.39-.65,4.35-3.62,4.42-11.64.29-11.64.35-11.58,12.05,0,1.65,0,3.29,0,5.38h-5v-41.88Z"/>
      <path d="m263.38,458.95h-5.29v-36.37c-3.99-3.25-10.5,1.94-13.23-5.53h31.82c.86,3.1-.24,4.26-3.32,4.45-9.92.61-9.94.69-9.97,10.57-.03,8.78,0,17.56,0,26.88Z"/>
      <path d="m23.53,459.07H.17c0-5.15,0-10.04,0-14.93,0-7.78.18-15.57-.04-23.34-.1-3.71,1.14-4.86,5.3-3.55,0,7.86,0,15.93,0,23.99,0,2.98.22,5.98-.03,8.94-.3,3.59,1.24,4.67,4.61,4.46,3.46-.22,6.98-.32,10.41.06,1.47.17,2.78,1.71,4.16,2.63-.35.58-.71,1.17-1.06,1.75Z"/>
      <path d="m225.61,416.9h5.02c0,10.48,0,20.68,0,30.89q0,6.76,6.87,6.79c2.48,0,5.04-.34,7.41.15,1.41.29,2.53,1.93,3.79,2.96-.32.43-.63.86-.95,1.29h-22.14v-42.07Z"/>
      <path d="m34.08,416.6v42.33c-1.47.11-2.88.22-4.66.36v-42.26c1.32-.12,2.7-.25,4.66-.43Z"/>
      <path d="m336.52,308.72c-6.9,0-6.71,0-6.97-6.56-.17-4.39.2-7.18,5.91-6.83,8.42.51,8.58.26,8.56,7.55-.02,5.66-.24,5.83-7.49,5.84Z"/>
      <path d="m195.21,166.55v7.15c-8.15,1.58-13.48,6.47-17.04,13.47-.49.97-.58,2.22-.59,3.35-.09,6.97-.27,13.95-.03,20.91.06,1.67,1.29,4.4,2.46,4.68,2.11.51,4.57-.47,6.88-.82-1.8-1.56-3.61-3.12-5.41-4.68-.69.22-1.38.43-2.07.65.92-7.73,1.41-15.54,2.9-23.16,1.36-6.95,7.26-9.89,13.48-10.95,7.1-1.22,13.1,2.06,16.76,8.03,1.9,3.1,2.36,7.31,2.69,11.08.44,4.93.11,9.93.11,14.71-.45.42-.64.75-.91.82-1.88.56-5.14.13-3.79,3.41.42,1.02,3.96,1.68,5.5,1.06,1.65-.66,3.7-3.03,3.68-4.63-.06-7.24-.18-14.57-1.44-21.67-1.67-9.42-8.35-14.38-18.31-16.52,0-2.62-.13-5.54.07-8.43.07-.99.74-2.25,1.53-2.84,4.39-3.23,4.43-7.03,1.44-11.46-3.12-4.62-5.51-9.83-7.55-15.05-2.54-6.5-4.56-13.22-6.43-19.95-.51-1.84-.43-5.19.64-5.87,3.34-2.12,2.61-3.94,1.4-6.94-4.03-9.92-.05-25.01,7.41-30.27,3.67-2.59,6.72-6.56,10.74-8.04,4.96-1.83,10.67-2.53,15.99-2.27,11.25.56,21.9,3.57,30.76,11.13,4.68,3.99,6.93,9.26,6.95,15.15.02,5.39-1.01,10.78-1.52,16.18-.08.79-.15,2.1.27,2.35,6.65,3.95,1.81,9.16.92,13.29-1.42,6.59-4.33,12.89-6.86,19.21-1.19,2.95-2.4,6.29-4.63,8.33-3.59,3.27-3.2,7.06-2.84,10.95.1,1.04,1.55,2.27,2.67,2.83,3.22,1.6,5.19,3.62,4.73,7.59-.34,2.95.35,6.04-.19,8.93-.42,2.28-1.58,4.75-3.16,6.43-2.58,2.75-3.58,8.61-1.29,11.49,2.62,3.29,6.33,3.71,9.85,1.11,4.78-3.53,5.81-6.62,2.38-10.47-5.46-6.14-2.6-12.76-2.72-20.06,10.52,4.35,20.21,8.31,29.86,12.38,1.64.69,3.37,1.59,4.55,2.86.91.98,1.85,3.16,1.37,4.02-6.36,11.38-12.49,22.93-19.63,33.82-10.59,16.17-23.42,30.46-39.17,41.9-2.75,2-5.49,4.12-8.52,5.6-1.52.74-4.17.94-5.48.1-15.95-10.26-30.06-22.8-40.71-38.43-9.1-13.37-16.56-27.86-24.69-41.88-1.4-2.42-1.42-4.67,1.58-6.06,6.64-3.05,13.24-6.18,19.91-9.14,3.82-1.7,7.73-3.19,11.63-4.68,1.02-.39,2.19-.41,3.88-.69Z"/>
      <path d="m251.52,190.8c2.8-1.51,4.36-2.36,6.61-3.58.49.89,1.74,2.57,2.29,4.45.17.59-1.8,2.61-2.36,2.45-1.9-.53-3.6-1.75-6.53-3.32Z"/>
    </g>
  </g>
</svg>